<svg width="153" height="21" viewBox="0 0 153 21" fill="none" xmlns="http://www.w3.org/2000/svg">
<path fill-rule="evenodd" clip-rule="evenodd" d="M34.1997 0.00538732H33.8707C32.1396 0.00269336 30.7349 1.40482 30.7349 3.13592V10.137C30.7349 11.5353 29.5793 12.6675 28.2044 12.6675C27.3874 12.6675 26.5717 12.2564 26.0876 11.5661L18.9367 1.35358C18.3435 0.505583 17.3783 0 16.3334 0C14.7035 0 13.2366 1.38593 13.2366 3.0968V10.1383C13.2366 11.5366 12.0907 12.6691 10.7061 12.6691C9.88629 12.6691 9.07214 12.2577 8.58801 11.5674L0.586453 0.140214C0.405802 -0.117291 0 0.0094296 0 0.324907V6.43077C0 6.73954 0.094367 7.03899 0.271002 7.29232L8.14454 18.5378C8.60951 19.2024 9.29595 19.6959 10.0873 19.8751C12.0676 20.3253 13.8904 18.8007 13.8904 16.8579V9.82023C13.8904 8.42223 15.0229 7.28973 16.4209 7.28973H16.4251C17.2677 7.28973 18.0578 7.70082 18.5416 8.39114L25.6925 18.6025C26.287 19.4519 27.2027 19.956 28.2945 19.956C29.9609 19.956 31.3887 18.5688 31.3887 16.8592V9.81894C31.3887 8.42093 32.5212 7.28844 33.9192 7.28844H34.1984C34.3735 7.28844 34.5152 7.14674 34.5152 6.97164V0.320865C34.5152 0.145603 34.3735 0.00404148 34.1984 0.00404148L34.1997 0.00538732ZM75.2509 5.27414H73.5009C73.3229 5.27414 73.1786 5.41839 73.1786 5.59637V19.6311C73.1786 19.8091 73.3229 19.9534 73.5009 19.9534H75.2509C75.4288 19.9534 75.5731 19.8091 75.5731 19.6311V5.59637C75.5731 5.41839 75.4288 5.27414 75.2509 5.27414ZM73.4428 0.00134782H75.3076C75.4856 0.00134782 75.6296 0.145603 75.6296 0.323559V2.61552C75.6296 2.79347 75.4856 2.93773 75.3076 2.93773H73.4428C73.2649 2.93773 73.1206 2.79347 73.1206 2.61552V0.323559C73.1206 0.145603 73.2649 0.00134782 73.4428 0.00134782ZM85.7252 4.87509C83.7583 4.87509 82.3331 5.55861 81.4206 6.5577C81.1279 6.8543 80.6222 6.64655 80.6222 6.23002V5.59637C80.6222 5.41839 80.4779 5.27414 80.3 5.27414H78.5797C78.4018 5.27414 78.2575 5.41839 78.2575 5.59637V19.6311C78.2575 19.8091 78.4018 19.9534 78.5797 19.9534H80.3015C80.4795 19.9534 80.6238 19.8091 80.6238 19.6311V10.7465C80.6238 7.66714 81.2221 6.98355 84.501 6.98355C87.7798 6.98355 88.3204 7.52571 88.3204 10.6035V19.6298C88.3204 19.8078 88.4647 19.9521 88.6427 19.9521H90.3927C90.5707 19.9521 90.715 19.8078 90.715 19.6298V9.9469C90.715 6.44036 88.7196 4.87238 85.7265 4.87238V4.87509H85.7252ZM103.602 6.75716C103.895 7.05375 104.4 6.84626 104.4 6.42948V0.324907C104.4 0.146951 104.545 0.00269366 104.723 0.00269366H106.444C106.622 0.00269366 106.767 0.146951 106.767 0.324907V19.6324C106.767 19.8104 106.622 19.9547 106.444 19.9547H104.723C104.545 19.9547 104.4 19.8104 104.4 19.6324V18.7994C104.418 18.3733 103.902 18.1684 103.602 18.4717C102.776 19.4977 101.18 20.3523 99.0413 20.3523C95.2799 20.3523 92.8276 17.6736 92.8276 12.6851C92.8276 7.41251 95.563 4.87509 99.1263 4.87509C101.265 4.87509 102.804 5.73112 103.602 6.75716ZM95.42 12.6271C95.42 17.4444 96.0187 18.1575 99.9244 18.1575C103.802 18.1575 104.4 17.4444 104.4 12.6271C104.4 7.81013 103.83 7.06852 99.9244 7.06852C96.0187 7.06852 95.42 7.81013 95.42 12.6271ZM116.773 11.7171L113.953 11.2333C111.871 10.8623 111.5 10.2355 111.5 9.15167C111.529 7.66844 112.099 6.92838 114.864 6.92838C117.454 6.92838 118.283 7.69408 118.461 9.34698C118.478 9.51017 118.616 9.63554 118.78 9.63554H120.491C120.675 9.63554 120.824 9.48193 120.813 9.29724C120.648 6.45927 118.05 4.87372 114.95 4.87372C111.472 4.87372 109.164 6.72607 109.164 9.37806C109.164 11.8008 111.046 12.8564 113.297 13.2838L116.405 13.8542C118.116 14.1681 118.686 14.7385 118.686 15.821C118.686 17.5602 118.087 18.3018 115.151 18.3018C112.215 18.3018 111.403 17.455 111.214 15.7389C111.197 15.5757 111.059 15.4516 110.895 15.4516H109.173C108.992 15.4516 108.846 15.6013 108.85 15.7819C108.932 18.8398 111.704 20.3551 115.007 20.3551C118.598 20.3551 121.078 18.5025 121.078 15.7078C121.078 13.2568 119.196 12.1445 116.773 11.7171ZM129.233 18.245C132.425 18.245 133.024 17.5617 133.024 14.4823V5.60042C133.024 5.42246 133.168 5.2782 133.346 5.2782H135.096C135.274 5.2782 135.419 5.42246 135.419 5.60042V19.635C135.419 19.813 135.274 19.9573 135.096 19.9573H133.346C133.168 19.9573 133.024 19.813 133.024 19.635V19.0232C133.017 18.5875 132.566 18.3704 132.254 18.6753C131.343 19.6728 129.918 20.3564 128.007 20.3564C125.071 20.3564 123.076 18.7885 123.076 15.2817V5.59907C123.076 5.42111 123.22 5.27686 123.398 5.27686H125.148C125.326 5.27686 125.47 5.42111 125.47 5.59907V14.6253C125.47 17.7032 126.04 18.245 129.233 18.245ZM149.421 5.27414V3.39207C149.421 2.65191 150.021 2.05196 150.761 2.05196H152.063C152.241 2.05196 152.385 1.90771 152.385 1.72975V0.322211C152.385 0.144255 152.241 0 152.063 0H151.16C148.594 0 147.026 1.42505 147.026 3.87743V5.27414H145.129C143.448 5.27683 142.129 5.5074 141.248 6.5577C140.925 6.86362 140.478 6.63437 140.478 6.18961V5.59772C140.478 5.41977 140.334 5.27548 140.156 5.27548H138.406C138.228 5.27548 138.084 5.41977 138.084 5.59772V19.6324C138.084 19.8104 138.228 19.9547 138.406 19.9547H140.156C140.334 19.9547 140.478 19.8104 140.478 19.6324V10.8341C140.478 7.92592 141.22 7.24259 144.412 7.24259H147.026V19.6337C147.026 19.8117 147.171 19.956 147.349 19.956H149.099C149.277 19.956 149.421 19.8117 149.421 19.6337V7.24259H152.066C152.244 7.24259 152.388 7.09831 152.388 6.92035V5.59907C152.388 5.42111 152.244 5.27686 152.066 5.27686H149.421V5.27414ZM63.4353 16.293C63.4975 16.5505 63.728 16.7325 63.9922 16.7325H63.9935C64.2565 16.7325 64.4857 16.553 64.5489 16.2984L68.5626 0.245384C68.5989 0.101128 68.7284 0 68.8766 0H70.8802C71.0944 0 71.2509 0.202228 71.197 0.409843L66.1479 19.72C66.1117 19.8562 65.9889 19.9521 65.8472 19.9521H62.2733C62.129 19.9521 62.0036 19.8536 61.9671 19.7148L57.7728 3.56192C57.7083 3.30983 57.4804 3.13322 57.2188 3.13322H57.1825C56.9222 3.13322 56.6945 3.30983 56.6284 3.56192L52.4354 19.7148C52.3989 19.8549 52.2736 19.9521 52.1293 19.9521H48.5554C48.4137 19.9521 48.2896 19.8562 48.2546 19.72L43.2056 0.409843C43.1517 0.202228 43.3081 0 43.5226 0H45.526C45.6741 0 45.8037 0.101128 45.8399 0.245384L49.8524 16.2984C49.9156 16.553 50.1435 16.7325 50.4077 16.7325C50.6719 16.7325 50.9025 16.5505 50.9646 16.293L54.8217 0.248077C54.8569 0.102474 54.9862 0 55.1359 0H59.2654C59.4151 0 59.5444 0.102474 59.5796 0.248077L63.4353 16.293Z" fill="black"/>
</svg>
