<svg width="1151" height="387" viewBox="0 0 1151 387" fill="none" xmlns="http://www.w3.org/2000/svg">
<mask id="mask0_8001_14398" style="mask-type:alpha" maskUnits="userSpaceOnUse" x="0" y="0" width="1151" height="387">
<rect width="1150.57" height="386.286" fill="url(#paint0_linear_8001_14398)"/>
</mask>
<g mask="url(#mask0_8001_14398)">
<path d="M-1675.58 -100.242C-984.246 -240.565 -542.165 -142.355 -239.831 -10.5157C50.5481 116.094 362.108 380.245 643.209 291.792C734.647 261.917 834.058 200.564 928.548 44.7215C961.357 -6.78857 985.308 -56.002 1004.01 -129.822C1034.52 -238.092 1049.94 -357.516 1051.91 -377.858L983.667 -376.545C981.699 -321.426 978.746 -222.999 946.921 -71.0941C934.139 -33.2654 916.737 3.3822 892.458 44.3934C803.074 195.38 724.805 239.607 648.104 270.211C358.86 372.699 45.6006 64.9252 -240.106 -103.713C-536.095 -278.42 -1011.6 -426.887 -1786.72 -286.649V-69.4536L-1728.98 -86.1862L-1675.58 -100.242Z" fill="url(#paint1_radial_8001_14398)"/>
<path d="M-1786.39 -69.7818C-1742.7 -81.3568 -1721.05 -90.2742 -1678.78 -99.6379C-1309.58 -181.385 -986.195 -184.58 -725.023 -146.883C-525.413 -118.07 -362.819 -64.1387 -239.831 -10.5092C50.5475 116.101 362.009 379.898 643.11 291.445C775.986 249.633 874.393 149.27 958.732 -8.10095C1015.49 -108.496 1047.97 -348.986 1052.24 -376.217H1114.57C1088.33 -255.152 1061.1 -74.0469 982.354 34.5507C859.321 215.656 762.206 279.417 638.313 313.368C365.553 388.113 55.2064 167.42 -239.556 82.688C-451.245 26.4076 -759.42 -24.7351 -1139.73 13.2249C-1271.95 29.6293 -1413.03 49.9709 -1560.34 85.0764C-1634.81 107.058 -1708.65 135.583 -1786.39 163.49V-69.7818Z" fill="url(#paint2_radial_8001_14398)"/>
<path d="M-1565.44 85.9033C-957.874 -54.5059 -548.563 -6.16513 -239.549 82.6815C55.2069 167.414 365.553 388.119 638.314 313.361C675.407 303.197 754.989 274.712 827.825 214.344C872.707 178.654 916.737 124.119 950.858 77.8585C1031.2 -31.0672 1045.68 -56.002 1114.25 -377.53L1164.77 -380.154L1154.6 -195.768C1141.81 -157.71 1088.66 -4.16385 941.344 151.351C863.225 239.456 800.593 285.211 717.587 312.771C688.925 322.285 662.796 328.519 633.596 334.424C369.333 395.816 59.6229 219.009 -239.273 175.892C-404.131 152.112 -668.919 134.946 -956.982 172.02C-1228.79 210.925 -1507.19 273.4 -1787.38 378.06V164.146C-1787.38 164.146 -1714.63 136.58 -1667.62 120.182C-1610.54 100.274 -1565.44 85.9033 -1565.44 85.9033Z" fill="url(#paint3_radial_8001_14398)"/>
<path d="M-1471.1 275.696C-950.421 132.649 -555.205 130.307 -239.261 175.878C59.6348 218.996 369.003 395.816 633.266 334.424C770.736 305.224 836.682 270.447 958.403 131.993C1004.01 83.4359 1097.18 -29.4268 1155.91 -203.314V-20.5684C1151.61 -5.60097 1120.15 54.236 1068.31 114.933C1031.04 158.582 997.774 187.112 958.731 216.64C935.437 234.259 870.475 274.712 790.749 311.458C741.864 333.44 684.711 347.016 628.522 356.524C372.894 404.931 63.8933 266.438 -238.999 269.075C-416.882 270.617 -746.35 296.819 -1066.89 378.06C-1328.38 444.334 -1607.26 544.073 -1786.72 635.939V377.404C-1786.72 377.404 -1681.84 339.018 -1613.49 317.692C-1550.5 298.039 -1471.1 275.696 -1471.1 275.696Z" fill="url(#paint4_radial_8001_14398)"/>
<path d="M-1787.7 635.938C-1687.31 584.1 -1516.37 516.514 -1358.89 462.379C-1223.06 417.103 -1081.66 379.701 -942.546 348.86C-659.405 283.898 -394.308 269.791 -238.984 269.088C63.9011 266.457 372.902 404.95 628.536 356.537C658.662 350.835 715.572 341.222 778.283 316.707C844.229 286.523 926.402 244.718 986.62 194.986C1067.66 128.056 1130.65 39.7999 1154.6 -17.6157L1153.95 133.633C1144.1 158.568 1089.64 212.598 963.982 276.024C844.669 336.248 696.589 372.155 623.641 378.119C376.734 413.947 68.2057 323.19 -238.709 362.286C-397.261 379.701 -707.962 449.912 -980.276 547.682C-1160.54 612.401 -1341.83 687.776 -1496.03 757.331C-1610.17 809.944 -1713.56 856.414 -1787.05 895.457L-1787.7 635.938Z" fill="url(#paint5_radial_8001_14398)"/>
<path d="M-1786.91 893.817C-1680.09 839.026 -1514.74 764.55 -1333.82 685.906C-1171.55 613.3 -989.136 548.667 -821.345 494.302C-587.089 415.889 -369.802 378.723 -238.907 362.05C67.9944 322.954 376.372 412.182 623.423 377.404C704.79 367.561 842.253 338.709 965.293 275.04C1125.07 192.362 1143.12 149.71 1154.93 132.978L1155.58 258.308C1140.47 262.369 1033.21 314.411 935.108 345.908C853.086 374.123 778.354 382.575 757.94 385.278C717.716 390.875 670.609 394.537 618.502 399.714C380.349 423.376 72.4301 375.514 -238.631 455.247C-313.298 474.381 -417.604 506.015 -536.373 551.292C-708.62 619.862 -881.523 702.869 -1095.11 815.075C-1190.11 864.984 -1303.12 932.859 -1403.18 998.477C-1554.76 1103.47 -1584.95 1133.98 -1677.47 1204.19C-1716.27 1233.63 -1786.91 1264 -1786.91 1264V893.817Z" fill="url(#paint6_radial_8001_14398)"/>
<path d="M-1124.86 830.483C-852.979 688.433 -575.395 541.843 -238.421 455.483C72.6401 375.764 380.604 423.35 618.758 399.688C671.981 392.496 794.358 388.559 900.331 356.735C1019.1 321.629 1131.31 266.51 1155.58 258.308L1153.62 416.119C1118.41 416.88 961.802 413.534 821.589 414.478C735.571 415.056 655.727 419.091 613.863 421.27C384.443 433.173 77.2859 428.514 -238.146 548.68C-407.761 613.957 -538.669 681.543 -749.302 822.622C-854.809 893.292 -959.608 977.808 -1040.97 1053.27C-1105.61 1113.21 -1149.24 1164.16 -1178.44 1204.52L-1676.81 1203.53C-1676.81 1203.53 -1519 1076.56 -1406.79 1000.77C-1294.59 924.985 -1124.86 830.483 -1124.86 830.483Z" fill="url(#paint7_radial_8001_14398)"/>
<path d="M-238.572 455.095C-506.102 527.747 -699.104 612.316 -940.25 735.021C-997.305 764.877 -1062 794.898 -1125.12 830.233C-1352.99 957.794 -1475.69 1039.49 -1676.81 1202.88M-238.559 455.108C72.5423 375.363 380.539 422.962 618.726 399.294C728.504 388.388 772.285 388.132 867.7 365.159C982.478 337.528 1150.99 259.62 1150.99 259.62" stroke="url(#paint8_linear_8001_14398)" stroke-width="0.656179" stroke-miterlimit="10" stroke-dasharray="7.87 7.87"/>
<path d="M1153.95 134.29C1138.53 156.6 1135.24 159.881 1126.71 168.739C1118.18 177.598 1046 247.481 867.884 317.561C763.401 353.782 733.046 361.17 623.609 377.056C376.669 412.897 68.0875 322.108 -238.847 361.216C-568.964 403.271 -879.028 502.662 -1235.27 643.367" stroke="url(#paint9_linear_8001_14398)" stroke-width="0.656179" stroke-miterlimit="10" stroke-dasharray="7.87 7.87"/>
<path d="M1153.29 -13.6785C1127.37 41.4405 1100.91 78.764 1054.86 129.04C993.338 196.227 962.866 216.719 868.061 271.267C782.029 320.756 737.606 335.448 628.49 356.111C372.83 404.537 63.789 265.998 -239.136 268.629C-562.186 271.444 -905.394 317.18 -1345.44 457.806C-1426.81 484.263 -1630.22 557.394 -1792.95 638.235" stroke="url(#paint10_linear_8001_14398)" stroke-width="0.656179" stroke-miterlimit="10" stroke-dasharray="7.87 7.87"/>
<path d="M-1455.59 271.622C-931.758 131.068 -555.407 129.828 -239.411 175.413C59.518 218.543 369.096 395.948 633.392 334.536C742.233 309.24 790.58 292.042 868.258 224.324C945.937 156.6 1036.49 37.1756 1036.49 37.1756C1061.75 0.869213 1120.74 -96.8817 1154.6 -197.408" stroke="url(#paint11_linear_8001_14398)" stroke-width="0.656179" stroke-miterlimit="10" stroke-dasharray="7.87 7.87"/>
<path d="M-1787.05 163.818C-1655.81 114.736 -1584.83 91.0937 -1565.74 85.4112V85.3981C-958.104 -55.057 -548.741 -6.70315 -239.687 82.1697C55.1077 166.935 365.487 387.719 638.287 312.935C746.891 283.17 822.056 223.622 868.448 177.381C914.84 131.147 983.555 35.2069 1001.71 2.39801C1019.87 -30.4109 1061.75 -93.076 1112.61 -375.233" stroke="url(#paint12_linear_8001_14398)" stroke-width="0.656179" stroke-miterlimit="10" stroke-dasharray="7.87 7.87"/>
<path d="M-1787.38 -69.4537C-1727.34 -88.1548 -1688.34 -98.3387 -1675.89 -100.806C-984.469 -241.176 -542.342 -142.933 -239.962 -11.0473C50.4501 115.608 362.05 379.851 643.183 291.366C751.603 257.238 824.328 185.688 868.646 130.438C912.964 75.1877 965.951 -20.8965 965.951 -20.8965C982.467 -52.7212 1031.63 -195.899 1051.58 -376.217" stroke="url(#paint13_linear_8001_14398)" stroke-width="0.656179" stroke-miterlimit="10" stroke-dasharray="7.87 7.87"/>
<path d="M-1786.06 -287.023C-1010.85 -427.314 -536.273 -279.05 -240.245 -104.284C45.4949 64.4134 358.794 372.292 648.07 269.771C756.399 231.378 826.604 147.748 868.835 83.4951C911.067 19.2421 936.094 -42.8784 936.094 -42.8784C950.201 -77.3278 980.714 -214.797 983.338 -376.217" stroke="url(#paint14_linear_8001_14398)" stroke-width="0.656179" stroke-miterlimit="10" stroke-dasharray="7.87 7.87"/>
</g>
<defs>
<linearGradient id="paint0_linear_8001_14398" x1="368.109" y1="252.13" x2="336.221" y2="366.927" gradientUnits="userSpaceOnUse">
<stop stop-color="#D9D9D9"/>
<stop offset="1" stop-color="#737373" stop-opacity="0"/>
</linearGradient>
<radialGradient id="paint1_radial_8001_14398" cx="0" cy="0" r="1" gradientUnits="userSpaceOnUse" gradientTransform="translate(546.267 178.531) rotate(67.723) scale(721.797 597.123)">
<stop offset="0.137857" stop-color="#FFE88E"/>
<stop offset="0.398078" stop-color="#FB9CE5"/>
<stop offset="0.721869" stop-color="#096FFF"/>
<stop offset="1" stop-color="#011C42" stop-opacity="0"/>
</radialGradient>
<radialGradient id="paint2_radial_8001_14398" cx="0" cy="0" r="1" gradientUnits="userSpaceOnUse" gradientTransform="translate(697.445 199.335) rotate(62.463) scale(721.797 597.123)">
<stop offset="0.146641" stop-color="#FFE88E"/>
<stop offset="0.41295" stop-color="#FB9CE5"/>
<stop offset="0.721869" stop-color="#096FFF"/>
<stop offset="1" stop-color="#011C42" stop-opacity="0"/>
</radialGradient>
<radialGradient id="paint3_radial_8001_14398" cx="0" cy="0" r="1" gradientUnits="userSpaceOnUse" gradientTransform="translate(788.069 112.624) rotate(89.2785) scale(721.797 597.123)">
<stop offset="0.0650809" stop-color="#FFE88E"/>
<stop offset="0.310628" stop-color="#FB9CE5"/>
<stop offset="0.721869" stop-color="#096FFF"/>
<stop offset="0.819692" stop-color="#011C42" stop-opacity="0"/>
</radialGradient>
<radialGradient id="paint4_radial_8001_14398" cx="0" cy="0" r="1" gradientUnits="userSpaceOnUse" gradientTransform="translate(823.828 12.3485) rotate(51.409) scale(721.797 597.123)">
<stop offset="0.0593665" stop-color="#FFE88E"/>
<stop offset="0.373032" stop-color="#FB9CE5"/>
<stop offset="0.721869" stop-color="#096FFF"/>
<stop offset="1" stop-color="#011C42" stop-opacity="0"/>
</radialGradient>
<radialGradient id="paint5_radial_8001_14398" cx="0" cy="0" r="1" gradientUnits="userSpaceOnUse" gradientTransform="translate(860.667 -76.0955) rotate(55.507) scale(721.797 597.123)">
<stop offset="0.314762" stop-color="#FFE88E"/>
<stop offset="0.442636" stop-color="#FB9CE5"/>
<stop offset="0.721869" stop-color="#096FFF"/>
<stop offset="1" stop-color="#011C42" stop-opacity="0"/>
</radialGradient>
<radialGradient id="paint6_radial_8001_14398" cx="0" cy="0" r="1" gradientUnits="userSpaceOnUse" gradientTransform="translate(873.435 -180.567) rotate(57.58) scale(721.797 597.123)">
<stop offset="0.234007" stop-color="#FFE88E"/>
<stop offset="0.373032" stop-color="#FB9CE5"/>
<stop offset="0.750002" stop-color="#096FFF"/>
<stop offset="1" stop-color="#011C42" stop-opacity="0"/>
</radialGradient>
<radialGradient id="paint7_radial_8001_14398" cx="0" cy="0" r="1" gradientUnits="userSpaceOnUse" gradientTransform="translate(920.315 -360.657) rotate(63.215) scale(721.797 597.123)">
<stop offset="0.178948" stop-color="#FFE88E"/>
<stop offset="0.332959" stop-color="#FB9CE5"/>
<stop offset="0.721869" stop-color="#096FFF"/>
<stop offset="0.844528" stop-color="#011C42" stop-opacity="0"/>
</radialGradient>
<linearGradient id="paint8_linear_8001_14398" x1="-451.193" y1="-17.3469" x2="-451.193" y2="429.944" gradientUnits="userSpaceOnUse">
<stop stop-color="#011C42"/>
<stop offset="0.344133" stop-color="#096FFF"/>
<stop offset="1" stop-color="#096FFF" stop-opacity="0"/>
</linearGradient>
<linearGradient id="paint9_linear_8001_14398" x1="-385.608" y1="-327.778" x2="-358.619" y2="904.46" gradientUnits="userSpaceOnUse">
<stop stop-color="#011C42"/>
<stop offset="0.344133" stop-color="#096FFF"/>
<stop offset="1" stop-color="#096FFF" stop-opacity="0"/>
</linearGradient>
<linearGradient id="paint10_linear_8001_14398" x1="-451.193" y1="-106.2" x2="-442.538" y2="609.691" gradientUnits="userSpaceOnUse">
<stop stop-color="#011C42"/>
<stop offset="0.344133" stop-color="#096FFF"/>
<stop offset="1" stop-color="#096FFF" stop-opacity="0"/>
</linearGradient>
<linearGradient id="paint11_linear_8001_14398" x1="-451.193" y1="-17.3463" x2="-451.193" y2="429.944" gradientUnits="userSpaceOnUse">
<stop stop-color="#011C42"/>
<stop offset="0.344133" stop-color="#096FFF"/>
<stop offset="1" stop-color="#096FFF" stop-opacity="0"/>
</linearGradient>
<linearGradient id="paint12_linear_8001_14398" x1="-451.193" y1="-17.3464" x2="-451.193" y2="429.944" gradientUnits="userSpaceOnUse">
<stop stop-color="#011C42"/>
<stop offset="0.344133" stop-color="#096FFF"/>
<stop offset="1" stop-color="#096FFF" stop-opacity="0"/>
</linearGradient>
<linearGradient id="paint13_linear_8001_14398" x1="-451.192" y1="-17.3466" x2="-451.192" y2="429.944" gradientUnits="userSpaceOnUse">
<stop stop-color="#011C42"/>
<stop offset="0.344133" stop-color="#096FFF"/>
<stop offset="1" stop-color="#096FFF" stop-opacity="0"/>
</linearGradient>
<linearGradient id="paint14_linear_8001_14398" x1="-451.193" y1="-17.3465" x2="-451.193" y2="429.944" gradientUnits="userSpaceOnUse">
<stop stop-color="#011C42"/>
<stop offset="0.344133" stop-color="#096FFF"/>
<stop offset="1" stop-color="#096FFF" stop-opacity="0"/>
</linearGradient>
</defs>
</svg>
